<svg xmlns="http://www.w3.org/2000/svg" viewBox="0 0 390 144" fill="none"><title>Calibrate. Fold once. Execute natively.</title>
<g stroke="#DB777F" stroke-width="1.3"><g transform="translate(26 12)"><rect x="13" y="3" width="55" height="67" rx="6" fill="#FBE3E1" transform="rotate(9 40 35)"/><rect x="5" y="5" width="55" height="67" rx="6" fill="#FFF0ED"/><rect y="8" width="55" height="67" rx="6" fill="#fff" transform="rotate(-8 25 40)"/><path d="m10 23 31-4m-29 17 31-4m-29 17 31-4m-29 17 31-4" stroke="#EBB1B5" stroke-width="5"/></g>
<g transform="translate(151 15)"><path d="m2 29 42-23 42 23-42 23Z" fill="#FFF8F5"/><path d="m2 42 42 23 42-23M2 55l42 23 42-23M2 68l42 23 42-23"/><path d="m17 21 43 24M33 12l43 24M61 15 20 39" stroke="#EBC0C0"/></g>
<g transform="translate(294 24)"><rect x="-8" y="-8" width="78" height="76" rx="10" fill="#FFF0ED" stroke="#E8C6C2"/><rect width="62" height="60" rx="7" fill="#fff"/><path d="M9 11h44M9 23h44M9 35h44" stroke-width="6" stroke-dasharray="6 5"/><path d="M8-15v7M23-15v7M38-15v7M53-15v7M8 68v7M23 68v7M38 68v7M53 68v7" stroke="#BDABA5"/></g></g>
<g font-family="sans-serif" fill="#17201C" text-anchor="middle" font-size="12" font-weight="600"><text x="65" y="131">Calibrate</text><text x="195" y="131">Fold once</text><text x="325" y="131">Execute natively</text></g><text x="325" y="75" text-anchor="middle" font-family="sans-serif" fill="#B9141A" font-size="7" font-weight="700">INT8 / INT4</text></svg>
